{
    "asset" : {
        "generator" : "Khronos glTF Blender I/O v3.3.32",
        "version" : "2.0"
    },
    "scene" : 0,
    "scenes" : [
        {
            "name" : "Scene",
            "nodes" : [
                0
            ]
        }
    ],
    "nodes" : [
        {
            "mesh" : 0,
            "name" : "1"
        }
    ],
    "meshes" : [
        {
            "name" : "Plane.070",
            "primitives" : [
                {
                    "attributes" : {
                        "POSITION" : 0,
                        "NORMAL" : 1,
                        "TEXCOORD_0" : 2
                    },
                    "indices" : 3
                }
            ]
        }
    ],
    "accessors" : [
        {
            "bufferView" : 0,
            "componentType" : 5126,
            "count" : 28,
            "max" : [
                0.15585601329803467,
                0.15256759524345398,
                -0.0015343052800744772
            ],
            "min" : [
                -0.17117445170879364,
                -0.3365492522716522,
                -0.0015343350823968649
            ],
            "type" : "VEC3"
        },
        {
            "bufferView" : 1,
            "componentType" : 5126,
            "count" : 28,
            "type" : "VEC3"
        },
        {
            "bufferView" : 2,
            "componentType" : 5126,
            "count" : 28,
            "type" : "VEC2"
        },
        {
            "bufferView" : 3,
            "componentType" : 5123,
            "count" : 42,
            "type" : "SCALAR"
        }
    ],
    "bufferViews" : [
        {
            "buffer" : 0,
            "byteLength" : 336,
            "byteOffset" : 0,
            "target" : 34962
        },
        {
            "buffer" : 0,
            "byteLength" : 336,
            "byteOffset" : 336,
            "target" : 34962
        },
        {
            "buffer" : 0,
            "byteLength" : 224,
            "byteOffset" : 672,
            "target" : 34962
        },
        {
            "buffer" : 0,
            "byteLength" : 84,
            "byteOffset" : 896,
            "target" : 34963
        }
    ],
    "buffers" : [
        {
            "byteLength" : 980,
            "uri" : "data:application/octet-stream;base64,"
        }
    ]
}
