{
	"asset":{
		"generator":"Khronos glTF Blender I/O v3.6.27",
		"version":"2.0"
	},
	"scene":0,
	"scenes":[
		{
			"name":"Scene",
			"nodes":[
				0
			]
		}
	],
	"nodes":[
		{
			"mesh":0,
			"name":"Cube",
			"scale":[
				0.2933877110481262,
				0.2933877110481262,
				0.2933877110481262
			],
			"translation":[
				0,
				0.9385062456130981,
				0
			]
		}
	],
	"meshes":[
		{
			"name":"Cube.001",
			"primitives":[
				{
					"attributes":{
						"POSITION":0,
						"NORMAL":1,
						"TEXCOORD_0":2
					},
					"indices":3
				}
			]
		}
	],
	"accessors":[
		{
			"bufferView":0,
			"componentType":5126,
			"count":3933,
			"max":[
				4.909547805786133,
				3.5778496265411377,
				1.3119637966156006
			],
			"min":[
				-4.909547805786133,
				-9.727959632873535,
				-0.784830629825592
			],
			"type":"VEC3"
		},
		{
			"bufferView":1,
			"componentType":5126,
			"count":3933,
			"type":"VEC3"
		},
		{
			"bufferView":2,
			"componentType":5126,
			"count":3933,
			"type":"VEC2"
		},
		{
			"bufferView":3,
			"componentType":5123,
			"count":6132,
			"type":"SCALAR"
		}
	],
	"bufferViews":[
		{
			"buffer":0,
			"byteLength":47196,
			"byteOffset":0,
			"target":34962
		},
		{
			"buffer":0,
			"byteLength":47196,
			"byteOffset":47196,
			"target":34962
		},
		{
			"buffer":0,
			"byteLength":31464,
			"byteOffset":94392,
			"target":34962
		},
		{
			"buffer":0,
			"byteLength":12264,
			"byteOffset":125856,
			"target":34963
		}
	],
	"buffers":[
		{
			"byteLength":138120,
			"uri":"data:application/octet-stream;base64,"
		}
	]
}
