{
	"asset":{
		"generator":"Khronos glTF Blender I/O v3.6.27",
		"version":"2.0"
	},
	"scene":0,
	"scenes":[
		{
			"name":"Scene",
			"nodes":[
				2
			]
		}
	],
	"nodes":[
		{
			"name":"Bone"
		},
		{
			"mesh":0,
			"name":"Sphere",
			"skin":0
		},
		{
			"children":[
				1,
				0
			],
			"name":"Armature",
			"translation":[
				0,
				10.240342140197754,
				0
			]
		}
	],
	"animations":[
		{
			"channels":[
				{
					"sampler":0,
					"target":{
						"node":2,
						"path":"translation"
					}
				},
				{
					"sampler":1,
					"target":{
						"node":2,
						"path":"rotation"
					}
				},
				{
					"sampler":2,
					"target":{
						"node":2,
						"path":"scale"
					}
				}
			],
			"name":"Bounce",
			"samplers":[
				{
					"input":7,
					"interpolation":"LINEAR",
					"output":8
				},
				{
					"input":7,
					"interpolation":"LINEAR",
					"output":9
				},
				{
					"input":7,
					"interpolation":"LINEAR",
					"output":10
				}
			]
		},
		{
			"channels":[
				{
					"sampler":0,
					"target":{
						"node":1,
						"path":"translation"
					}
				},
				{
					"sampler":1,
					"target":{
						"node":1,
						"path":"rotation"
					}
				},
				{
					"sampler":2,
					"target":{
						"node":1,
						"path":"scale"
					}
				}
			],
			"name":"SphereAction",
			"samplers":[
				{
					"input":11,
					"interpolation":"LINEAR",
					"output":12
				},
				{
					"input":11,
					"interpolation":"LINEAR",
					"output":13
				},
				{
					"input":11,
					"interpolation":"LINEAR",
					"output":14
				}
			]
		}
	],
	"meshes":[
		{
			"name":"Sphere",
			"primitives":[
				{
					"attributes":{
						"POSITION":0,
						"NORMAL":1,
						"TEXCOORD_0":2,
						"JOINTS_0":3,
						"WEIGHTS_0":4
					},
					"indices":5
				}
			]
		}
	],
	"skins":[
		{
			"inverseBindMatrices":6,
			"joints":[
				0
			],
			"name":"Armature"
		}
	],
	"accessors":[
		{
			"bufferView":0,
			"componentType":5126,
			"count":1984,
			"max":[
				0.9999997019767761,
				11.240342140197754,
				0.9999993443489075
			],
			"min":[
				-0.9999990463256836,
				9.240342140197754,
				-1
			],
			"type":"VEC3"
		},
		{
			"bufferView":1,
			"componentType":5126,
			"count":1984,
			"type":"VEC3"
		},
		{
			"bufferView":2,
			"componentType":5126,
			"count":1984,
			"type":"VEC2"
		},
		{
			"bufferView":3,
			"componentType":5121,
			"count":1984,
			"type":"VEC4"
		},
		{
			"bufferView":4,
			"componentType":5126,
			"count":1984,
			"type":"VEC4"
		},
		{
			"bufferView":5,
			"componentType":5123,
			"count":2880,
			"type":"SCALAR"
		},
		{
			"bufferView":6,
			"componentType":5126,
			"count":1,
			"type":"MAT4"
		},
		{
			"bufferView":7,
			"componentType":5126,
			"count":17,
			"max":[
				0.7083333333333334
			],
			"min":[
				0.041666666666666664
			],
			"type":"SCALAR"
		},
		{
			"bufferView":8,
			"componentType":5126,
			"count":17,
			"type":"VEC3"
		},
		{
			"bufferView":9,
			"componentType":5126,
			"count":17,
			"type":"VEC4"
		},
		{
			"bufferView":10,
			"componentType":5126,
			"count":17,
			"type":"VEC3"
		},
		{
			"bufferView":11,
			"componentType":5126,
			"count":5,
			"max":[
				0.20833333333333334
			],
			"min":[
				0.041666666666666664
			],
			"type":"SCALAR"
		},
		{
			"bufferView":12,
			"componentType":5126,
			"count":5,
			"type":"VEC3"
		},
		{
			"bufferView":13,
			"componentType":5126,
			"count":5,
			"type":"VEC4"
		},
		{
			"bufferView":14,
			"componentType":5126,
			"count":5,
			"type":"VEC3"
		}
	],
	"bufferViews":[
		{
			"buffer":0,
			"byteLength":23808,
			"byteOffset":0,
			"target":34962
		},
		{
			"buffer":0,
			"byteLength":23808,
			"byteOffset":23808,
			"target":34962
		},
		{
			"buffer":0,
			"byteLength":15872,
			"byteOffset":47616,
			"target":34962
		},
		{
			"buffer":0,
			"byteLength":7936,
			"byteOffset":63488,
			"target":34962
		},
		{
			"buffer":0,
			"byteLength":31744,
			"byteOffset":71424,
			"target":34962
		},
		{
			"buffer":0,
			"byteLength":5760,
			"byteOffset":103168,
			"target":34963
		},
		{
			"buffer":0,
			"byteLength":64,
			"byteOffset":108928
		},
		{
			"buffer":0,
			"byteLength":68,
			"byteOffset":108992
		},
		{
			"buffer":0,
			"byteLength":204,
			"byteOffset":109060
		},
		{
			"buffer":0,
			"byteLength":272,
			"byteOffset":109264
		},
		{
			"buffer":0,
			"byteLength":204,
			"byteOffset":109536
		},
		{
			"buffer":0,
			"byteLength":20,
			"byteOffset":109740
		},
		{
			"buffer":0,
			"byteLength":60,
			"byteOffset":109760
		},
		{
			"buffer":0,
			"byteLength":80,
			"byteOffset":109820
		},
		{
			"buffer":0,
			"byteLength":60,
			"byteOffset":109900
		}
	],
	"buffers":[
		{
			"byteLength":109960,
			"uri":"data:application/octet-stream;base64,"
		}
	]
}
