{
    "asset" : {
        "generator" : "Khronos glTF Blender I/O v1.2.75",
        "version" : "2.0"
    },
    "scene" : 0,
    "scenes" : [
        {
            "name" : "Scene",
            "nodes" : [
                0
            ]
        }
    ],
    "nodes" : [
        {
            "mesh" : 0,
            "name" : "Body.001"
        }
    ],
    "meshes" : [
        {
            "name" : "Cube.002",
            "primitives" : [
                {
                    "attributes" : {
                        "POSITION" : 0,
                        "NORMAL" : 1,
                        "TEXCOORD_0" : 2
                    },
                    "indices" : 3
                }
            ]
        }
    ],
    "accessors" : [
        {
            "bufferView" : 0,
            "componentType" : 5126,
            "count" : 5985,
            "max" : [
                2.3639938831329346,
                9.246173858642578,
                0.4319871664047241
            ],
            "min" : [
                -2.419914484024048,
                0.25450992584228516,
                -0.7546010613441467
            ],
            "type" : "VEC3"
        },
        {
            "bufferView" : 1,
            "componentType" : 5126,
            "count" : 5985,
            "type" : "VEC3"
        },
        {
            "bufferView" : 2,
            "componentType" : 5126,
            "count" : 5985,
            "type" : "VEC2"
        },
        {
            "bufferView" : 3,
            "componentType" : 5123,
            "count" : 6024,
            "type" : "SCALAR"
        }
    ],
    "bufferViews" : [
        {
            "buffer" : 0,
            "byteLength" : 71820,
            "byteOffset" : 0
        },
        {
            "buffer" : 0,
            "byteLength" : 71820,
            "byteOffset" : 71820
        },
        {
            "buffer" : 0,
            "byteLength" : 47880,
            "byteOffset" : 143640
        },
        {
            "buffer" : 0,
            "byteLength" : 12048,
            "byteOffset" : 191520
        }
    ],
    "buffers" : [
        {
            "byteLength" : 203568,
            "uri" : "data:application/octet-stream;base64,"
        }
    ]
}
