{
    "asset" : {
        "generator" : "Khronos glTF Blender I/O v3.3.32",
        "version" : "2.0"
    },
    "scene" : 0,
    "scenes" : [
        {
            "name" : "Scene",
            "nodes" : [
                0
            ]
        }
    ],
    "nodes" : [
        {
            "mesh" : 0,
            "name" : "@"
        }
    ],
    "meshes" : [
        {
            "name" : "Plane.064",
            "primitives" : [
                {
                    "attributes" : {
                        "POSITION" : 0,
                        "NORMAL" : 1,
                        "TEXCOORD_0" : 2
                    },
                    "indices" : 3
                }
            ]
        }
    ],
    "accessors" : [
        {
            "bufferView" : 0,
            "componentType" : 5126,
            "count" : 156,
            "max" : [
                0.1790580153465271,
                0.17149682343006134,
                -0.0015343052800744772
            ],
            "min" : [
                -0.15446868538856506,
                -0.42034196853637695,
                -0.0015343350823968649
            ],
            "type" : "VEC3"
        },
        {
            "bufferView" : 1,
            "componentType" : 5126,
            "count" : 156,
            "type" : "VEC3"
        },
        {
            "bufferView" : 2,
            "componentType" : 5126,
            "count" : 156,
            "type" : "VEC2"
        },
        {
            "bufferView" : 3,
            "componentType" : 5123,
            "count" : 234,
            "type" : "SCALAR"
        }
    ],
    "bufferViews" : [
        {
            "buffer" : 0,
            "byteLength" : 1872,
            "byteOffset" : 0,
            "target" : 34962
        },
        {
            "buffer" : 0,
            "byteLength" : 1872,
            "byteOffset" : 1872,
            "target" : 34962
        },
        {
            "buffer" : 0,
            "byteLength" : 1248,
            "byteOffset" : 3744,
            "target" : 34962
        },
        {
            "buffer" : 0,
            "byteLength" : 468,
            "byteOffset" : 4992,
            "target" : 34963
        }
    ],
    "buffers" : [
        {
            "byteLength" : 5460,
            "uri" : "data:application/octet-stream;base64,"
        }
    ]
}
