{
    "asset" : {
        "generator" : "Khronos glTF Blender I/O v3.3.32",
        "version" : "2.0"
    },
    "scene" : 0,
    "scenes" : [
        {
            "name" : "Scene",
            "nodes" : [
                0
            ]
        }
    ],
    "nodes" : [
        {
            "mesh" : 0,
            "name" : ">"
        }
    ],
    "meshes" : [
        {
            "name" : "Plane.069",
            "primitives" : [
                {
                    "attributes" : {
                        "POSITION" : 0,
                        "NORMAL" : 1,
                        "TEXCOORD_0" : 2
                    },
                    "indices" : 3
                }
            ]
        }
    ],
    "accessors" : [
        {
            "bufferView" : 0,
            "componentType" : 5126,
            "count" : 11,
            "max" : [
                0.1802496314048767,
                0.03510204330086708,
                -0.0015343052800744772
            ],
            "min" : [
                -0.16317711770534515,
                -0.2857634723186493,
                -0.0015343350823968649
            ],
            "type" : "VEC3"
        },
        {
            "bufferView" : 1,
            "componentType" : 5126,
            "count" : 11,
            "type" : "VEC3"
        },
        {
            "bufferView" : 2,
            "componentType" : 5126,
            "count" : 11,
            "type" : "VEC2"
        },
        {
            "bufferView" : 3,
            "componentType" : 5123,
            "count" : 15,
            "type" : "SCALAR"
        }
    ],
    "bufferViews" : [
        {
            "buffer" : 0,
            "byteLength" : 132,
            "byteOffset" : 0,
            "target" : 34962
        },
        {
            "buffer" : 0,
            "byteLength" : 132,
            "byteOffset" : 132,
            "target" : 34962
        },
        {
            "buffer" : 0,
            "byteLength" : 88,
            "byteOffset" : 264,
            "target" : 34962
        },
        {
            "buffer" : 0,
            "byteLength" : 30,
            "byteOffset" : 352,
            "target" : 34963
        }
    ],
    "buffers" : [
        {
            "byteLength" : 384,
            "uri" : "data:application/octet-stream;base64,"
        }
    ]
}
