{
    "asset" : {
        "generator" : "Khronos glTF Blender I/O v3.3.32",
        "version" : "2.0"
    },
    "scene" : 0,
    "scenes" : [
        {
            "name" : "Scene",
            "nodes" : [
                0
            ]
        }
    ],
    "nodes" : [
        {
            "mesh" : 0,
            "name" : "Y"
        }
    ],
    "meshes" : [
        {
            "name" : "Plane.045",
            "primitives" : [
                {
                    "attributes" : {
                        "POSITION" : 0,
                        "NORMAL" : 1,
                        "TEXCOORD_0" : 2
                    },
                    "indices" : 3
                }
            ]
        }
    ],
    "accessors" : [
        {
            "bufferView" : 0,
            "componentType" : 5126,
            "count" : 15,
            "max" : [
                0.1893322765827179,
                0.2745184600353241,
                -0.0015343052800744772
            ],
            "min" : [
                -0.18934135138988495,
                -0.22108222544193268,
                -0.0015343350823968649
            ],
            "type" : "VEC3"
        },
        {
            "bufferView" : 1,
            "componentType" : 5126,
            "count" : 15,
            "type" : "VEC3"
        },
        {
            "bufferView" : 2,
            "componentType" : 5126,
            "count" : 15,
            "type" : "VEC2"
        },
        {
            "bufferView" : 3,
            "componentType" : 5123,
            "count" : 21,
            "type" : "SCALAR"
        }
    ],
    "bufferViews" : [
        {
            "buffer" : 0,
            "byteLength" : 180,
            "byteOffset" : 0,
            "target" : 34962
        },
        {
            "buffer" : 0,
            "byteLength" : 180,
            "byteOffset" : 180,
            "target" : 34962
        },
        {
            "buffer" : 0,
            "byteLength" : 120,
            "byteOffset" : 360,
            "target" : 34962
        },
        {
            "buffer" : 0,
            "byteLength" : 42,
            "byteOffset" : 480,
            "target" : 34963
        }
    ],
    "buffers" : [
        {
            "byteLength" : 524,
            "uri" : "data:application/octet-stream;base64,"
        }
    ]
}
